<svg xmlns="http://www.w3.org/2000/svg" viewBox="0 0 81.96 2433"><g id="Capa_2" data-name="Capa 2"><g id="Capa_1-2" data-name="Capa 1"><path d="M81,0V609c0,.65,0,1.29,0,1.94L60.68,952.15a118.28,118.28,0,0,1-27.33,69.29c-6.24,7.41-9.91,13.57-11,17.4a29.56,29.56,0,0,1-2.25,5.5,120.67,120.67,0,0,0-5.55,12.27,32.92,32.92,0,0,0,8.22,36.5,28.58,28.58,0,0,1,8.9,13.76,31.91,31.91,0,0,1-1.9,22.26c-7.6,16.44-12.12,40.75-12.52,54.71a33.46,33.46,0,0,1-5.79,17.84c-9.07,13.37-14.94,29.48-6,50.11A31.7,31.7,0,0,1,8,1264.4V2433" style="fill:none;stroke:#0f0f0f;stroke-miterlimit:10;stroke-width:2px"/></g></g></svg>