<svg xmlns="http://www.w3.org/2000/svg" viewBox="0 0 94.31 2435.01"><g id="Capa_2" data-name="Capa 2"><g id="Capa_1-2" data-name="Capa 1"><path d="M3,0V484.35a1768.3,1768.3,0,0,0,17.77,250L56.16,982.13A187.27,187.27,0,0,0,68,1026.2c18.49,45.53,38.4,133.56,6.53,189.16a14.43,14.43,0,0,0-1.26,11.72c5.46,16.49,7.45,36.32-2.48,52.45a14.38,14.38,0,0,0-.45,14.38c4.56,8.49,5.61,19.95,3.78,29a14.68,14.68,0,0,0,.57,8.2c15.26,40-.75,56.53-3.65,75.88-3,20,0,1028,0,1028" style="fill:none;stroke:#0f0f0f;stroke-miterlimit:10;stroke-width:6px"/></g></g></svg>