<svg xmlns="http://www.w3.org/2000/svg" viewBox="0 0 54.95 2434"><g id="Capa_2" data-name="Capa 2"><g id="Capa_1-2" data-name="Capa 1"><path d="M46.18,0V610l6.26,345a105,105,0,0,1-20.93,65.07c-10.4,13.82-19.07,31.46-17.09,53.95a31.39,31.39,0,0,0,2.83,10.45c7.39,15.83,14.11,28.7,5.78,43a31.81,31.81,0,0,1-6.36,7.57c-14.06,12.57-16,25.54-10.87,36.53a31.17,31.17,0,0,1,.43,24.45c-3.58,9.09-5.29,15.54-1.89,24.32A32.18,32.18,0,0,1,6.12,1235c-1.85,20.1,25.84,45.12,24.06,63-2,20,0,1136,0,1136" style="fill:none;stroke:#0f0f0f;stroke-miterlimit:10;stroke-width:5px"/></g></g></svg>