<svg xmlns="http://www.w3.org/2000/svg" viewBox="0 0 682.9 2437.5"><g id="Capa_2" data-name="Capa 2"><g id="Capa_1-2" data-name="Capa 1"><path d="M435.81,0V364.4A1838,1838,0,0,0,500.3,847l58.51,215c33,106,38,168,27,202,13,30,11,135,11,135V2434" style="fill:none;stroke:#0f0f0f;stroke-miterlimit:10;stroke-width:2px"/><path d="M360.81,0V430.31q0,179.64,12.64,358.94L387.81,993c15,65,22,118,13,150s-23,116-6,147-14.83,65.38-27,89c-17,33,0,1055,0,1055" style="fill:none;stroke:#0f0f0f;stroke-miterlimit:10;stroke-width:2px"/><path d="M310.81,0V609c0,.65,0,1.29-.05,1.94L290.53,952.15a118.28,118.28,0,0,1-27.33,69.29c-6.24,7.41-9.91,13.57-11,17.4a29.56,29.56,0,0,1-2.25,5.5,120.67,120.67,0,0,0-5.55,12.27,32.92,32.92,0,0,0,8.22,36.5,28.58,28.58,0,0,1,8.9,13.76,31.91,31.91,0,0,1-1.9,22.26c-7.6,16.44-12.12,40.75-12.52,54.71a33.46,33.46,0,0,1-5.79,17.84c-9.07,13.37-14.93,29.48-6,50.11a31.7,31.7,0,0,1,2.52,12.61V2433" style="fill:none;stroke:#0f0f0f;stroke-miterlimit:10;stroke-width:2px"/><path d="M285.81,0V396a2477.39,2477.39,0,0,1-36.68,424.75L219.29,992.27a88.59,88.59,0,0,1-17.81,40.17c-8.35,10.46-13.79,20.93-15.88,31.39A94.09,94.09,0,0,1,174.08,1094c-8.09,13.44-4.33,34.38,1.73,45,8,14,11,76-6,104-14.67,24.16-11.46,75.88-10.31,89.6q.31,3.7.31,7.43V2436" style="fill:none;stroke:#0f0f0f;stroke-miterlimit:10;stroke-width:5px"/><path d="M335.81,0V610l6.26,345a105,105,0,0,1-20.92,65.07c-10.4,13.82-19.08,31.46-17.09,53.95a30.92,30.92,0,0,0,2.83,10.45c7.39,15.83,14.11,28.7,5.77,43a31.54,31.54,0,0,1-6.35,7.57c-14.07,12.57-16,25.54-10.87,36.53a31.12,31.12,0,0,1,.42,24.45c-3.57,9.09-5.28,15.54-1.89,24.32a32.18,32.18,0,0,1,1.79,14.6c-1.85,20.1,25.84,45.12,24.05,63-2,20,0,1136,0,1136" style="fill:none;stroke:#0f0f0f;stroke-miterlimit:10;stroke-width:5px"/><path d="M385.81,0V484.35a1768.3,1768.3,0,0,0,17.77,250L439,982.13a187.25,187.25,0,0,0,11.79,44.07c18.5,45.53,38.4,133.56,6.53,189.16a14.43,14.43,0,0,0-1.26,11.72c5.47,16.49,7.46,36.32-2.47,52.45a14.36,14.36,0,0,0-.46,14.38c4.56,8.49,5.61,19.95,3.78,29a14.86,14.86,0,0,0,.57,8.2c15.26,40-.74,56.53-3.65,75.88-3,20,0,1028,0,1028" style="fill:none;stroke:#0f0f0f;stroke-miterlimit:10;stroke-width:6px"/><path d="M410.81,0V408.53a1803.8,1803.8,0,0,0,44.45,398L505.81,1030c15.5,44.5,40.5,57.5,22.5,84.5,29,42,23,78,28,92,15,17,34,64,8,79,19,46-3,63-18,76v1076" style="fill:none;stroke:#0f0f0f;stroke-miterlimit:10;stroke-width:5px"/><path d="M460.81,0V292.79a2016.2,2016.2,0,0,0,97.41,619.1l55,170.44a262.88,262.88,0,0,0,19.52,45.37c3.74,6.85,6.41,12.35,8.32,16.7a259.6,259.6,0,0,0,18.57,34.74c19,30,24.58,51.41,19.5,73.47a266.5,266.5,0,0,0-5,26.56,42.68,42.68,0,0,1-1.48,7.2,83.3,83.3,0,0,0-3.84,24.35V2433" style="fill:none;stroke:#0f0f0f;stroke-miterlimit:10;stroke-width:4px"/><path d="M235.81,0V201A2276.5,2276.5,0,0,1,93.41,993.46l-17.57,47.29a1102.06,1102.06,0,0,1-53.52,120.16C-.06,1204.44-2,1245.7,7.05,1277.67c26.1,92.53,37.76,188.54,37.76,284.68V2435" style="fill:none;stroke:#0f0f0f;stroke-miterlimit:10;stroke-width:4px"/><path d="M260.81,0V334.88a1942.06,1942.06,0,0,1-76.42,539.41l-47.8,165.29a87.54,87.54,0,0,1-17.86,33.31c-16.14,18.5-20.58,45.44-13.92,57.11-31.26,22.52-45.17,97.83-17.07,139.33a14.38,14.38,0,0,1,2.1,6.62c.37,20.27,4.46,30.71,6.64,34.85a11.8,11.8,0,0,1,1.33,5.49V2435" style="fill:none;stroke:#0f0f0f;stroke-miterlimit:10;stroke-width:4.5px"/></g></g></svg>